<?xml version="1.0" encoding="iso-8859-1"?>
<!-- Generator: Adobe Illustrator 16.0.0, SVG Export Plug-In . SVG Version: 6.00 Build 0)  -->
<!DOCTYPE svg PUBLIC "-//W3C//DTD SVG 1.1//EN" "http://www.w3.org/Graphics/SVG/1.1/DTD/svg11.dtd">
<svg version="1.1" id="Croix_Mini_popin_1_" xmlns="http://www.w3.org/2000/svg" xmlns:xlink="http://www.w3.org/1999/xlink"
	 x="0px" y="0px" width="3.84px" height="3.36px" viewBox="0 0 3.84 3.36" style="enable-background:new 0 0 3.84 3.36;"
	 xml:space="preserve">
<g id="Croix_Mini_popin">
	<g>
		<path style="fill-rule:evenodd;clip-rule:evenodd;fill:#464646;" d="M0.495,0.945h0.908V0.48H0.495V0.945z M0.975,1.425h0.908
			V0.96H0.975V1.425z M3.345,0H2.88v0.465h0.465V0z M2.865,0.48H2.4v0.465h0.465V0.48z M2.385,0.96H1.92v0.465h0.465V0.96z
			 M1.425,1.92H0.96v0.465h0.465V1.92z M0.945,2.4H0.48v0.465h0.465V2.4z M0,3.345h0.465V2.88H0V3.345z M0.923,0H0.015v0.465h0.908
			V0z M2.843,1.92H1.935v0.465h0.908V1.92z M3.322,2.4H2.415v0.465h0.907V2.4z M2.895,3.345h0.908V2.88H2.895V3.345z M2.401,1.44
			H1.44v0.465h0.961V1.44z M3.361,0v0.465h0.465V0H3.361z M2.881,0.945h0.465V0.48H2.881V0.945z M2.401,1.425h0.465V0.96H2.401
			V1.425z M1.441,2.385h0.465V1.92H1.441V2.385z M0.961,2.865h0.465V2.4H0.961V2.865z M0.481,3.345h0.465V2.88H0.481V3.345z"/>
	</g>
</g>
</svg>
