<?xml version="1.0" encoding="iso-8859-1"?>
<!-- Generator: Adobe Illustrator 16.0.0, SVG Export Plug-In . SVG Version: 6.00 Build 0)  -->
<!DOCTYPE svg PUBLIC "-//W3C//DTD SVG 1.1//EN" "http://www.w3.org/Graphics/SVG/1.1/DTD/svg11.dtd">
<svg version="1.1" id="Croix_sous_menu_nav_1_" xmlns="http://www.w3.org/2000/svg" xmlns:xlink="http://www.w3.org/1999/xlink"
	 x="0px" y="0px" width="4.8px" height="4.32px" viewBox="0 0 4.8 4.32" style="enable-background:new 0 0 4.8 4.32;"
	 xml:space="preserve">
<g id="Croix_sous_menu_nav">
	<g>
		<path style="fill-rule:evenodd;clip-rule:evenodd;fill:#464646;" d="M1.92,0.96H1.455v0.465H1.92V0.96z M3.375,3.345H3.84V2.88
			H3.375V3.345z M3.855,3.825H4.32V3.36H3.855V3.825z M4.334,4.305H4.8V3.84H4.334V4.305z M2.88,2.865H3.36V2.4H2.88V2.865z
			 M1.425,0.48H0.96v0.465h0.465V0.48z M0.48,0.465h0.465V0H0.48V0.465z M3.825,0.96H3.36v0.465h0.465V0.96z M2.88,1.905h0.465V1.44
			H2.88V1.905z M2.88,1.92H2.4v0.465h0.48V1.92z M1.92,2.865h0.465V2.4H1.92V2.865z M1.44,3.345h0.465V2.88H1.44V3.345z M0.96,3.825
			h0.465V3.36H0.96V3.825z M0.48,4.305h0.465V3.84H0.48V4.305z M3.855,0.945H4.32V0.48H3.855V0.945z M4.334,0v0.465H4.8V0H4.334z
			 M1.928,2.385h0.465V1.92H1.928V2.385z M3.338,0.96H2.874v0.465h0.465V0.96z M2.858,1.44H1.935v0.465h0.923V1.44z M1.898,2.4
			H1.433v0.465h0.465V2.4z M1.418,2.88H0.953v0.465h0.465V2.88z M0.938,3.36H0.473v0.465h0.465V3.36z M-0.007,4.305h0.465V3.84
			h-0.465V4.305z M3.833,0.48H3.368v0.465h0.466V0.48z M4.313,0H3.848v0.465h0.465V0z M0.968,1.425h0.465V0.96H0.968V1.425z
			 M1.448,1.905h0.465V1.44H1.448V1.905z M2.408,2.865h0.466V2.4H2.408V2.865z M2.888,3.345h0.465V2.88H2.888V3.345z M3.368,3.825
			h0.466V3.36H3.368V3.825z M3.848,4.305h0.465V3.84H3.848V4.305z M0.938,0.48H0.473v0.465h0.465V0.48z M-0.007,0.465h0.465V0
			h-0.465V0.465z"/>
	</g>
</g>
</svg>
