<svg id="Layer_1" data-name="Layer 1" xmlns="http://www.w3.org/2000/svg" viewBox="0 0 1000 1000"><defs><style>.cls-1{fill:#fff;}</style></defs><title>monogram</title><path class="cls-1" d="M500,0C223.86,0,0,223.85,0,500s223.86,500,500,500,500-223.85,500-500S776.13,0,500,0m0,0C223.86,0,0,223.85,0,500s223.86,500,500,500,500-223.85,500-500S776.13,0,500,0m0,41.66A456.73,456.73,0,0,1,814.67,166.79l-168.84,0v41.72s58.33-.14,66.66-.14,13.77,2.54,16.67,8.33c4.16,8.34-.61,16.58-4.36,25C721,250.33,520.86,708.32,520.86,708.32L472.49,599.44C525,476.05,582.43,351.79,587.92,336c6.3-17.69,17.81-22.24,25.6-23.47h32.31l-.07-41.63-185.86-.07-.05,41.73h29.73S510.89,314.39,500,339c-3.76,8.47-32.68,74.8-70.06,161.08,0,0-111.83-252.38-114.41-258.39s-9.31-17-5.52-25c3.57-7.48,12.92-8.26,12.92-8.26H375V166.74l-189.69.05A456.73,456.73,0,0,1,500,41.66M41.66,500A456.49,456.49,0,0,1,146.37,208.4H187.5c4.27.07,14.21.74,25.63,8.64,13.65,9.44,30.34,54,36.71,69.57,5.41,13.21,136.68,312.77,136.68,312.77-37.26,85.2-84,189.76-84,189.76s-9.6,25.73-31.73,44.19c-24.7,20.58-41.26,20.83-61.74,20.85C106.86,770.13,41.66,642.67,41.66,500M500,958.34a456.13,456.13,0,0,1-231.16-62.51l416.08-.07,81.74-187.36-41.51.06s-27.25,54.24-47.67,99.73c-19.49,43.33-50.17,46-77.49,46H462.49c-29.15,0-51.86,1.38-66.66-20.83-16.67-25,4.16-66.66,4.16-66.66s11.15-27.41,29.42-68.32l49.74,114.21h41.67l249.25-570.9s3.66-7.94,7.87-16.67c6.54-13.51,17.88-16.72,26.21-16.67s49.16,0,49.16,0l-.09-.4A456.52,456.52,0,0,1,958.32,500c0,253.13-205.2,458.34-458.33,458.34m0-916.67A456.73,456.73,0,0,1,814.67,166.79l-168.84,0v41.72s58.33-.14,66.66-.14,13.77,2.54,16.67,8.33c4.16,8.34-.61,16.58-4.36,25C721,250.33,520.86,708.32,520.86,708.32L472.49,599.44C525,476.05,582.43,351.79,587.92,336c6.3-17.69,17.81-22.24,25.6-23.47h32.31l-.07-41.63-185.86-.07-.05,41.73h29.73S510.89,314.39,500,339c-3.76,8.47-32.68,74.8-70.06,161.08,0,0-111.83-252.38-114.41-258.39s-9.31-17-5.52-25c3.57-7.48,12.92-8.26,12.92-8.26H375V166.74l-189.69.05A456.73,456.73,0,0,1,500,41.66M41.66,500A456.49,456.49,0,0,1,146.37,208.4H187.5c4.27.07,14.21.74,25.63,8.64,13.65,9.44,30.34,54,36.71,69.57,5.41,13.21,136.68,312.77,136.68,312.77-37.26,85.2-84,189.76-84,189.76s-9.6,25.73-31.73,44.19c-24.7,20.58-41.26,20.83-61.74,20.85C106.86,770.13,41.66,642.67,41.66,500M500,958.34a456.13,456.13,0,0,1-231.16-62.51l416.08-.07,81.74-187.36-41.51.06s-27.25,54.24-47.67,99.73c-19.49,43.33-50.17,46-77.49,46H462.49c-29.15,0-51.86,1.38-66.66-20.83-16.67-25,4.16-66.66,4.16-66.66s11.15-27.41,29.42-68.32l49.74,114.21h41.67l249.25-570.9s3.66-7.94,7.87-16.67c6.54-13.51,17.88-16.72,26.21-16.67s49.16,0,49.16,0l-.09-.4A456.52,456.52,0,0,1,958.32,500c0,253.13-205.2,458.34-458.33,458.34" transform="translate(0 0)"/></svg>