<?xml version="1.0"?><svg width="793.7007874015749" height="1122.5196850393702" xmlns="http://www.w3.org/2000/svg">
 <title>white shopping cart</title>

 <metadata id="metadata7">image/svg+xmlshopping cartcartsupermarketshoppingshopping cartSergio Luiz Araujo Silva</metadata>
 <g>
  <title>Layer 1</title>
  <rect id="svg_1" height="624" width="624" y="53.480347" x="78.299194" stroke-width="5" fill="#000000"/>
  <g id="layer1">
   <path fill="#ffffff" stroke-width="15.5" id="path3847" d="m562.074585,163.891373c-0.560181,0.007996 -1.13678,0.057495 -1.687622,0.15625c-0.01001,0.001999 -0.020996,-0.001999 -0.031006,0l-55.625,9.5c-3.537659,0.606964 -6.503479,3.032837 -7.8125,6.375a2.52904,2.52904 0 0 0 0,0.031204l-25.812469,66.1875l-251.906204,6.28125c-2.897003,0.072388 -5.616409,1.380859 -7.5,3.5625c-1.883301,2.181671 -2.789902,5.082916 -2.437607,7.96875l13.906311,115.03125c0.5737,4.826111 4.560989,8.653198 9.406296,9.03125l179.593704,14.28125l35.593689,28a2.52904,2.52904 0 0 0 0.125,0.093689c0.037994,0.026398 0.085999,0.036499 0.125,0.0625c0.044006,0.029114 0.080994,0.065216 0.125,0.093689c6.495697,4.848541 8.105591,11.454071 7.187592,15.125c-0.523102,2.091797 -1.321686,3.628662 -3.218781,4.8125c-1.897095,1.183868 -5.174194,2.040619 -10.781219,1.71875a2.52904,2.52904 0 0 0 -0.062988,0c-0.180115,-0.005981 -0.382294,-0.003998 -0.562408,0c-0.029999,0.000702 -0.063995,-0.000946 -0.093994,0l-214.1875,0.625l-0.030991,0c-5.628799,-0.035889 -10.366104,4.685181 -10.343704,10.3125c0.022003,5.627869 4.777893,10.330933 10.406296,10.25c0.011002,-0.000122 0.020996,0.000214 0.031006,0l15.656204,-0.031189c-5.817215,3.708252 -9.718704,10.19516 -9.718704,17.5625c0,11.45874 9.385208,20.84375 20.843704,20.84375c11.458801,0 20.843781,-9.38501 20.843781,-20.84375c0,-7.407196 -3.911774,-13.958405 -9.781189,-17.65625l176.375,-0.5c-6.354492,3.58252 -10.687592,10.383698 -10.687592,18.15625c0,11.45874 9.384979,20.84375 20.843781,20.84375c11.45871,0 20.843811,-9.38501 20.843811,-20.84375c0,-9.951508 -7.069611,-18.340668 -16.437592,-20.375c8.857483,-3.133362 15.661804,-9.594635 19.875,-19.46875a2.52904,2.52904 0 0 0 0.156281,-0.375c3.230011,-12.91629 -2.498901,-26.959106 -14.3125,-36.09375a2.52904,2.52904 0 0 0 -0.093994,-0.093689c-0.028992,-0.022217 -0.033997,-0.071594 -0.061981,-0.093719a2.52904,2.52904 0 0 0 -0.343811,-0.34375l-25.218811,-19.78125l78.656342,-201.468735l49.90625,-8.5c0.01001,-0.001999 0.021057,0.001999 0.031006,0c5.242737,-0.842865 9.076843,-5.729172 8.625,-11.03125c-0.452454,-5.31218 -5.081055,-9.478622 -10.406189,-9.40625l0.000305,0zm-98.562592,98.124985l-14.5,37.1875l-18.906189,0l0,-36.343719l33.406189,-0.843781zm-40.625,1.03125l0,36.15625l-34.906189,0l0,-35.28125l34.906189,-0.875zm-42.125,1.031281l0,35.124969l-34.906189,0l0,-34.249969l34.906189,-0.875zm-42.125,1.062469l0,34.0625l-34.906189,0l0,-33.1875l34.906189,-0.875zm-42.125,1.0625l0,33l-34.906189,0l0,-32.124969l34.906189,-0.875031zm-42.125,1.03125l0,31.96875l-25.593704,0l-3.781296,-31.218719l29.375,-0.750031zm-24.718704,39.15625l24.718704,0l0,32.65625l-20.781204,0l-3.9375,-32.65625zm31.937515,0l34.906189,0l0,32.65625l-34.906189,0l0,-32.65625zm42.125,0l34.906189,0l0,32.65625l-34.906189,0l0,-32.65625zm42.125,0l34.906189,0l0,32.65625l-34.906189,0l0,-32.65625zm42.125,0l34.906189,0l0,32.65625l-34.906189,0l0,-32.65625zm42.125,0l16.125,0l-12.75,32.65625l-3.375,0l0,-32.65625zm-195.625015,39.84375l19.906204,0l0,23.4375l-17.25,-1.374969l-2.656204,-22.062531zm27.125015,0l34.906189,0l0,26.78125l-34.906189,-2.78125l0,-24zm42.125,0l34.906189,0l0,30.125l-34.906189,-2.749969l0,-27.375031zm42.125,0l34.906189,0l0,33.5l-34.906189,-2.781219l0,-30.718781zm42.125,0l34.906189,0l0,19.875l-6.625,16.96875c-0.860016,-0.416656 -1.797516,-0.672394 -2.75,-0.75l-25.531189,-2.03125l0,-34.0625zm42.125,0l0.531189,0l-0.531189,1.46875l0,-1.46875zm-176.843811,132.4375c6.811096,0 12.25,5.439056 12.25,12.25c0,6.810974 -5.438904,12.21875 -12.25,12.21875c-6.810699,0 -12.25,-5.407776 -12.25,-12.21875c0,-6.810944 5.439301,-12.25 12.25,-12.25zm197.593811,0c6.810883,0 12.25,5.439056 12.25,12.25c0,6.810974 -5.439117,12.21875 -12.25,12.21875c-6.811005,0 -12.25,-5.407776 -12.25,-12.21875c0,-6.810944 5.438995,-12.25 12.25,-12.25zm-197.593811,5.8125c-3.700104,0 -6.656189,2.956116 -6.656189,6.65625c0,3.700165 2.956085,6.625 6.656189,6.625c3.700287,0 6.656311,-2.924835 6.656311,-6.625c0,-3.700134 -2.956024,-6.65625 -6.656311,-6.65625zm197.593811,0c-3.700226,0 -6.656219,2.956116 -6.656219,6.65625c0,3.700165 2.955994,6.625 6.656219,6.625c3.700073,0 6.656189,-2.924835 6.656189,-6.625c0,-3.700134 -2.956116,-6.65625 -6.656189,-6.65625z"/>
  </g>
  <circle id="svg_6" r="288.22583" cy="371.480349" cx="388.799192" stroke-linecap="null" stroke-linejoin="null" stroke-dasharray="null" stroke-width="7" fill="none"/>
 </g>
</svg>